<svg width="30" height="30" viewBox="0 0 30 30" fill="none" xmlns="http://www.w3.org/2000/svg">
<path d="M0 1C0 0.734784 0.105359 0.48043 0.292899 0.292893C0.480439 0.105357 0.734798 0 1.00002 0H4.00008C4.22315 6.1623e-05 4.43979 0.0747014 4.61556 0.212049C4.79132 0.349398 4.91612 0.541568 4.9701 0.758L5.78012 4H29.0006C29.1485 4.00009 29.2945 4.03298 29.4282 4.0963C29.5618 4.15963 29.6798 4.25181 29.7735 4.3662C29.8672 4.48059 29.9344 4.61435 29.9702 4.75784C30.0061 4.90133 30.0096 5.05098 29.9806 5.196L27.9806 15.196C27.9368 15.4141 27.8216 15.6113 27.6532 15.7566C27.4847 15.9018 27.2727 15.9868 27.0505 15.998L8.25617 16.942L8.83018 20H26.0005C26.2657 20 26.5201 20.1054 26.7076 20.2929C26.8952 20.4804 27.0005 20.7348 27.0005 21C27.0005 21.2652 26.8952 21.5196 26.7076 21.7071C26.5201 21.8946 26.2657 22 26.0005 22H8.00016C7.76702 21.9998 7.54128 21.9181 7.36197 21.7691C7.18266 21.6201 7.06104 21.4132 7.01814 21.184L4.02008 5.214L3.22006 2H1.00002C0.734798 2 0.480439 1.89464 0.292899 1.70711C0.105359 1.51957 0 1.26522 0 1ZM6.20412 6L7.88416 14.958L26.1725 14.04L27.7806 6H6.20412ZM10.0002 22C8.93931 22 7.92188 22.4214 7.17172 23.1716C6.42156 23.9217 6.00012 24.9391 6.00012 26C6.00012 27.0609 6.42156 28.0783 7.17172 28.8284C7.92188 29.5786 8.93931 30 10.0002 30C11.0611 30 12.0785 29.5786 12.8287 28.8284C13.5788 28.0783 14.0003 27.0609 14.0003 26C14.0003 24.9391 13.5788 23.9217 12.8287 23.1716C12.0785 22.4214 11.0611 22 10.0002 22ZM24.0005 22C22.9396 22 21.9222 22.4214 21.172 23.1716C20.4218 23.9217 20.0004 24.9391 20.0004 26C20.0004 27.0609 20.4218 28.0783 21.172 28.8284C21.9222 29.5786 22.9396 30 24.0005 30C25.0614 30 26.0788 29.5786 26.829 28.8284C27.5791 28.0783 28.0006 27.0609 28.0006 26C28.0006 24.9391 27.5791 23.9217 26.829 23.1716C26.0788 22.4214 25.0614 22 24.0005 22ZM10.0002 24C10.5306 24 11.0394 24.2107 11.4144 24.5858C11.7895 24.9609 12.0002 25.4696 12.0002 26C12.0002 26.5304 11.7895 27.0391 11.4144 27.4142C11.0394 27.7893 10.5306 28 10.0002 28C9.46976 28 8.96104 27.7893 8.58596 27.4142C8.21088 27.0391 8.00016 26.5304 8.00016 26C8.00016 25.4696 8.21088 24.9609 8.58596 24.5858C8.96104 24.2107 9.46976 24 10.0002 24ZM24.0005 24C24.5309 24 25.0396 24.2107 25.4147 24.5858C25.7898 24.9609 26.0005 25.4696 26.0005 26C26.0005 26.5304 25.7898 27.0391 25.4147 27.4142C25.0396 27.7893 24.5309 28 24.0005 28C23.47 28 22.9613 27.7893 22.5862 27.4142C22.2112 27.0391 22.0004 26.5304 22.0004 26C22.0004 25.4696 22.2112 24.9609 22.5862 24.5858C22.9613 24.2107 23.47 24 24.0005 24Z" fill="black"/>
</svg>
