<svg width="30" height="30" viewBox="0 0 30 30" fill="none" xmlns="http://www.w3.org/2000/svg">
<path d="M16.4139 0.636825C16.0389 0.229066 15.5303 0 15 0C14.4697 0 13.9611 0.229066 13.5861 0.636825L0.293239 15.0922C0.200271 15.1933 0.126524 15.3134 0.0762102 15.4455C0.0258963 15.5776 0 15.7192 0 15.8622C0 16.0052 0.0258963 16.1468 0.0762102 16.2789C0.126524 16.411 0.200271 16.531 0.293239 16.6321C0.480996 16.8364 0.73565 16.9511 1.00118 16.9511C1.13266 16.9511 1.26284 16.9229 1.38431 16.8682C1.50578 16.8135 1.61615 16.7333 1.70912 16.6321L3.00101 15.2249V26.7374C3.00101 27.6027 3.31705 28.4326 3.87962 29.0444C4.44218 29.6563 5.20518 30 6.00076 30H23.9992C24.7948 30 25.5578 29.6563 26.1204 29.0444C26.6829 28.4326 26.999 27.6027 26.999 26.7374V15.2249L28.2909 16.6321C28.4786 16.8364 28.7333 16.9511 28.9988 16.9511C29.2644 16.9511 29.519 16.8364 29.7068 16.6321C29.8945 16.4279 30 16.151 30 15.8622C30 15.5734 29.8945 15.2964 29.7068 15.0922L24.9992 9.97432V2.81188C24.9992 2.52345 24.8938 2.24683 24.7063 2.04288C24.5188 1.83893 24.2644 1.72435 23.9992 1.72435H21.9994C21.7342 1.72435 21.4799 1.83893 21.2924 2.04288C21.1048 2.24683 20.9995 2.52345 20.9995 2.81188V5.62421L16.4139 0.636825ZM24.9992 13.0498V26.7374C24.9992 27.0259 24.8938 27.3025 24.7063 27.5064C24.5188 27.7104 24.2644 27.825 23.9992 27.825H6.00076C5.73556 27.825 5.48123 27.7104 5.29371 27.5064C5.10619 27.3025 5.00084 27.0259 5.00084 26.7374V13.0498L15 2.17459L24.9992 13.0498Z" fill="black"/>
</svg>
