<svg width="65" height="65" viewBox="0 0 65 65" fill="none" xmlns="http://www.w3.org/2000/svg">
<g clip-path="url(#clip0_50_122)">
<path d="M44.6875 24.375C44.6875 27.6073 43.4035 30.7073 41.1179 32.9929C38.8323 35.2785 35.7323 36.5625 32.5 36.5625C29.2677 36.5625 26.1677 35.2785 23.8821 32.9929C21.5965 30.7073 20.3125 27.6073 20.3125 24.375C20.3125 21.1427 21.5965 18.0427 23.8821 15.7571C26.1677 13.4715 29.2677 12.1875 32.5 12.1875C35.7323 12.1875 38.8323 13.4715 41.1179 15.7571C43.4035 18.0427 44.6875 21.1427 44.6875 24.375Z" fill="black"/>
<path fill-rule="evenodd" clip-rule="evenodd" d="M0 32.5C0 23.8805 3.4241 15.614 9.51903 9.51903C15.614 3.4241 23.8805 0 32.5 0C41.1195 0 49.386 3.4241 55.481 9.51903C61.5759 15.614 65 23.8805 65 32.5C65 41.1195 61.5759 49.386 55.481 55.481C49.386 61.5759 41.1195 65 32.5 65C23.8805 65 15.614 61.5759 9.51903 55.481C3.4241 49.386 0 41.1195 0 32.5ZM32.5 4.0625C27.1447 4.06279 21.8984 5.57522 17.3648 8.42574C12.8312 11.2763 9.19459 15.349 6.8736 20.1752C4.55262 25.0013 3.64157 30.3848 4.24531 35.706C4.84904 41.0271 6.94303 46.0696 10.2863 50.2531C13.1706 45.6056 19.5203 40.625 32.5 40.625C45.4797 40.625 51.8253 45.6016 54.7138 50.2531C58.057 46.0696 60.151 41.0271 60.7547 35.706C61.3584 30.3848 60.4474 25.0013 58.1264 20.1752C55.8054 15.349 52.1688 11.2763 47.6352 8.42574C43.1016 5.57522 37.8553 4.06279 32.5 4.0625Z" fill="black"/>
</g>
<defs>
<clipPath id="clip0_50_122">
<rect width="65" height="65" fill="white"/>
</clipPath>
</defs>
</svg>
