<svg width="30" height="30" viewBox="0 0 30 30" fill="none" xmlns="http://www.w3.org/2000/svg">
<path d="M22.0171 19.3935C23.8326 16.9158 24.6457 13.8439 24.2938 10.7923C23.942 7.74072 22.451 4.93455 20.1192 2.9352C17.7875 0.93585 14.7869 -0.109228 11.7178 0.00904609C8.64871 0.12732 5.73744 1.40022 3.56643 3.5731C1.39542 5.74597 0.124773 8.65856 0.00871192 11.7282C-0.10735 14.7978 0.939728 17.798 2.94046 20.1287C4.9412 22.4593 7.74804 23.9485 10.7994 24.2983C13.8508 24.648 16.9218 23.8326 19.3978 22.015H19.396C19.451 22.0901 19.5122 22.1619 19.5797 22.2307L26.7982 29.4502C27.1497 29.8021 27.6267 29.9998 28.124 30C28.6214 30.0002 29.0984 29.8027 29.4503 29.4511C29.8021 29.0995 29.9998 28.6225 30 28.1251C30.0002 27.6277 29.8028 27.1505 29.4512 26.7987L22.2327 19.5792C22.1657 19.5113 22.0936 19.4505 22.0171 19.3935ZM22.5008 12.1853C22.5008 13.5397 22.2341 14.8808 21.7159 16.1321C21.1976 17.3834 20.4381 18.5204 19.4805 19.4781C18.5229 20.4358 17.3861 21.1955 16.135 21.7138C14.8839 22.2321 13.5429 22.4988 12.1887 22.4988C10.8345 22.4988 9.49357 22.2321 8.24245 21.7138C6.99133 21.1955 5.85453 20.4358 4.89696 19.4781C3.93939 18.5204 3.17981 17.3834 2.66158 16.1321C2.14334 14.8808 1.87661 13.5397 1.87661 12.1853C1.87661 9.44996 2.96306 6.82666 4.89696 4.89249C6.83086 2.95832 9.45378 1.87172 12.1887 1.87172C14.9237 1.87172 17.5466 2.95832 19.4805 4.89249C21.4144 6.82666 22.5008 9.44996 22.5008 12.1853Z" fill="black"/>
</svg>
